<svg width="100" height="100" viewBox="0 0 100 100" fill="none" xmlns="http://www.w3.org/2000/svg">
<path d="M79.9996 98.889L78.5701 62.7167C78.4774 58.3792 76.6701 54.2326 73.5057 51.0974C70.3413 47.9622 66.0504 46.0667 61.4818 45.786L57.7773 45.5557" stroke="#211E1E" stroke-width="2" stroke-miterlimit="10"/>
<path d="M52.2227 47.2604L55.6686 53.3334L61.1115 45.5557" stroke="#211E1E" stroke-width="2" stroke-miterlimit="10"/>
<path d="M40 45.5555L45.6373 53.3333L48.8889 47.3247" stroke="#211E1E" stroke-width="2" stroke-miterlimit="10"/>
<path d="M51.2371 2.22425L48.0179 2.27477C41.6272 2.38498 36.5556 7.72094 36.6699 13.8835L36.9746 30.1302C36.9988 31.5972 37.3228 33.0452 37.928 34.3913C38.5332 35.7375 39.4077 36.9553 40.5016 37.9751C41.5954 38.9949 42.8871 39.7967 44.3027 40.3346C45.7183 40.8725 47.23 41.1359 48.7513 41.1098L51.9657 41.0547C55.0353 41.0016 57.9574 39.7748 60.0891 37.6443C62.2208 35.5138 63.3876 32.654 63.3328 29.6939L63.0328 13.4289C62.9185 7.26633 57.6278 2.11864 51.2371 2.22425Z" stroke="#211E1E" stroke-width="2" stroke-miterlimit="10"/>
<path d="M63.1955 13.3589L63.3346 21.7821C63.2739 22.1154 63.0982 22.4185 62.8366 22.6416C62.5749 22.8647 62.243 22.9945 61.8954 23.0094C61.5927 23.0243 61.2946 22.9331 61.0552 22.7524C60.8158 22.5718 60.6509 22.3136 60.5904 22.0248C60.5855 21.9673 60.5855 21.9096 60.5904 21.8521L59.9236 9.46234L58.2972 9.67233C52.8855 10.3443 45.2478 10.783 39.9369 9.54634L39.4092 22.1834C39.3786 22.4887 39.2358 22.773 39.007 22.9841C38.7782 23.1952 38.4788 23.3189 38.1638 23.3325C37.8487 23.3461 37.5392 23.2487 37.2921 23.0582C37.045 22.8677 36.8768 22.5969 36.8185 22.2954C36.8117 22.2334 36.8117 22.1708 36.8185 22.1088C36.8185 22.1088 36.8185 22.1088 36.8185 22.0761L36.6698 13.8116C36.6158 10.8103 37.7874 7.91065 39.9277 5.74824C42.0681 3.58583 45.0026 2.3371 48.088 2.2758L51.3311 2.22447C54.4224 2.17077 57.4089 3.31366 59.6339 5.40175C61.8589 7.48984 63.14 10.3521 63.1955 13.3589V13.3589Z" stroke="#211E1E" stroke-width="2" stroke-miterlimit="10"/>
<path d="M42.2227 38.8887V44.8697C42.2227 44.8697 49.2057 48.8949 57.7782 44.8959L57.6957 39.1718" stroke="#211E1E" stroke-width="2" stroke-miterlimit="10"/>
<path d="M54.4457 52.2227L52.227 55.491L48.7323 55.556L46.668 52.434" stroke="#211E1E" stroke-width="2" stroke-miterlimit="10"/>
<path d="M42.12 45.5557L38.572 45.7825C34.1945 46.0643 30.0847 47.9328 27.0542 51.0192C24.0236 54.1056 22.2926 58.1854 22.203 62.4531L21.1094 97.7779H79.9983" stroke="#211E1E" stroke-width="2" stroke-miterlimit="10"/>
<path d="M48.2465 55.5558L44.4453 89.1488L50.0009 94.4446L55.5564 89.1488L52.0477 55.5557" stroke="#211E1E" stroke-width="2" stroke-miterlimit="10"/>
</svg>
