<svg width="92" height="92" viewBox="0 0 92 92" fill="none" xmlns="http://www.w3.org/2000/svg">
<path d="M90.9991 1H1.07031V91H90.9991V1Z" stroke="#211E1E" stroke-width="2" stroke-miterlimit="10"/>
<path d="M10.375 54.4431V37.7266" stroke="#211E1E" stroke-width="2" stroke-miterlimit="10"/>
<path d="M10.375 20.0951V10.3145H81.6914V81.6846H10.375V71.9172" stroke="#211E1E" stroke-width="2" stroke-miterlimit="10"/>
<path d="M46.0336 63.3877C55.6222 63.3877 63.3953 55.6084 63.3953 46.0122C63.3953 36.416 55.6222 28.6367 46.0336 28.6367C36.445 28.6367 28.6719 36.416 28.6719 46.0122C28.6719 55.6084 36.445 63.3877 46.0336 63.3877Z" stroke="#211E1E" stroke-width="2" stroke-miterlimit="10"/>
<path d="M46.0396 51.2114C48.9092 51.2114 51.2354 48.8833 51.2354 46.0115C51.2354 43.1396 48.9092 40.8115 46.0396 40.8115C43.17 40.8115 40.8438 43.1396 40.8438 46.0115C40.8438 48.8833 43.17 51.2114 46.0396 51.2114Z" stroke="#211E1E" stroke-width="2" stroke-miterlimit="10"/>
<path d="M58.3359 58.3252L62.8178 62.808" stroke="#211E1E" stroke-width="2" stroke-miterlimit="10"/>
<path d="M29.2539 29.2168L33.7464 33.7155" stroke="#211E1E" stroke-width="2" stroke-miterlimit="10"/>
<path d="M33.6961 58.3633L29.2539 62.809" stroke="#211E1E" stroke-width="2" stroke-miterlimit="10"/>
<path d="M62.819 29.2168L58.3477 33.6917" stroke="#211E1E" stroke-width="2" stroke-miterlimit="10"/>
<path d="M46.0352 63.3751V69.7659" stroke="#211E1E" stroke-width="2" stroke-miterlimit="10"/>
<path d="M46.0352 22.2599V28.5527" stroke="#211E1E" stroke-width="2" stroke-miterlimit="10"/>
<path d="M28.6601 46.0117H22.3008" stroke="#211E1E" stroke-width="2" stroke-miterlimit="10"/>
<path d="M69.7719 46.0117H63.3359" stroke="#211E1E" stroke-width="2" stroke-miterlimit="10"/>
<path d="M57.5817 46.0117H51.1484" stroke="#211E1E" stroke-width="2" stroke-miterlimit="10"/>
<path d="M91.0488 35.9932H81.6328" stroke="#211E1E" stroke-width="2" stroke-miterlimit="10"/>
<path d="M91.0488 56.0098H81.6328" stroke="#211E1E" stroke-width="2" stroke-miterlimit="10"/>
<path d="M14.9825 20.1279H1V37.559H14.9825V20.1279Z" stroke="#211E1E" stroke-width="2" stroke-miterlimit="10"/>
<path d="M14.9825 54.4434H1V71.8744H14.9825V54.4434Z" stroke="#211E1E" stroke-width="2" stroke-miterlimit="10"/>
</svg>
